<?xml version="1.0" standalone="no"?>
<!DOCTYPE svg PUBLIC "-//W3C//DTD SVG 20010904//EN"
 "http://www.w3.org/TR/2001/REC-SVG-20010904/DTD/svg10.dtd">
<svg version="1.0" xmlns="http://www.w3.org/2000/svg"
 width="347.000000pt" height="493.000000pt" viewBox="0 0 347.000000 493.000000"
 preserveAspectRatio="xMidYMid meet">
<metadata>
Created by potrace 1.16, written by Peter Selinger 2001-2019
</metadata>
<g transform="translate(0.000000,493.000000) scale(0.100000,-0.100000)"
fill="#000000" stroke="none">
<path d="M295 4841 c-80 -36 -120 -111 -113 -212 5 -66 38 -118 99 -154 33
-20 57 -20 979 -25 1039 -6 977 -3 1110 -70 42 -21 91 -59 141 -109 235 -235
237 -584 5 -817 -122 -122 -258 -173 -468 -175 -57 0 -125 -4 -151 -7 l-49 -7
423 -435 c728 -750 846 -867 885 -880 54 -18 144 -9 183 20 65 46 93 175 53
246 -9 16 -186 196 -392 400 -206 203 -376 371 -377 374 -1 3 42 41 95 86 200
166 316 352 364 582 28 137 21 339 -16 465 -106 358 -363 620 -686 700 -133
33 -243 37 -1145 37 -852 0 -902 -1 -940 -19z"/>
<path d="M316 4216 c-44 -17 -91 -58 -114 -101 -25 -49 -22 -142 8 -191 30
-49 2835 -2809 2888 -2841 50 -31 138 -31 200 -2 67 33 102 94 102 178 -1 42
-7 77 -18 98 -19 36 -2827 2800 -2883 2839 -46 32 -128 40 -183 20z"/>
<path d="M182 2793 l3 -729 28 -42 c15 -24 45 -51 69 -63 80 -41 206 -22 260
38 47 52 48 60 47 610 l0 518 -205 199 -204 198 2 -729z"/>
<path d="M860 2562 l0 -289 648 -634 c1609 -1576 1586 -1554 1642 -1569 92
-25 199 21 239 102 26 55 27 128 2 183 -12 28 -165 184 -507 520 -269 264
-830 815 -1248 1225 -417 410 -762 747 -767 748 -5 2 -9 -119 -9 -286z"/>
</g>
</svg>
